<?xml version="1.0" encoding="UTF-8"?>
<!DOCTYPE svg PUBLIC "-//W3C//DTD SVG 1.1//EN" "http://www.w3.org/Graphics/SVG/1.1/DTD/svg11.dtd">
<!-- Creator: CorelDRAW 2019 (64-Bit) -->
<svg xmlns="http://www.w3.org/2000/svg" xml:space="preserve" width="1080px" height="1080px" version="1.1" style="shape-rendering:geometricPrecision; text-rendering:geometricPrecision; image-rendering:optimizeQuality; fill-rule:evenodd; clip-rule:evenodd"
viewBox="0 0 1080 1080"
 xmlns:xlink="http://www.w3.org/1999/xlink">
 <defs>
  <style type="text/css">
   <![CDATA[
    .fil1 {fill:#EF8418}
    .fil0 {fill:#FDFDFD}
   ]]>
  </style>
 </defs>
 <g id="Layer_x0020_1">
  <metadata id="CorelCorpID_0Corel-Layer"/>
  <g id="_1764375124800">
   <path class="fil0" d="M495.83 522.79c-0.79,-4.41 -1.01,-50.35 0,-52.72l0 -101.99 91 0c-2.5,-10.04 3.58,-18.08 9.75,-21.93 3.42,-2.12 8.48,-3.13 11.29,-5.4 2.74,-2.21 5,-6.12 6.41,-10.31 -1.38,-0.74 -3.79,-1.17 -6.65,-1.39l-19.81 0 -113.3 0c-8.11,0.43 -12.89,5.2 -15.37,11.41 -2.42,6.04 -0.95,45.29 -0.95,55.49l0 168.66c0,39.91 3.7,62.05 -16.42,95.78 -5.95,9.97 -11.14,15.04 -18.94,22.88 -10.31,10.36 -30.23,21.24 -45.89,25.19 -49.3,12.44 -98.88,-7.06 -124.74,-50.07 -17.52,-29.13 -14.94,-50.66 -14.94,-84.02 16.03,0 32.06,-0.01 48.09,0 14.59,0 11.85,2.28 11.85,-12.55 0,-3.87 0.99,-22.16 -0.62,-23.77 -1.29,-1.29 -88.01,-0.62 -96.95,-0.62 0,20.73 -0.92,73.57 1.5,90.49 3.66,25.61 17.86,54.29 32.49,70.66l5.55 6.29c10.28,10.23 12.5,12.1 24.87,21.13 4.61,3.37 9.62,5.55 14.47,8.52l15.89 7.11c4.94,1.98 12.24,4.28 17.6,5.4 31.65,6.61 60.09,5.04 90.52,-6.01 2.6,-0.95 5.95,-2.41 8.29,-3.57 5.38,-2.65 9.74,-4.96 14.92,-8.07 4.74,-2.83 15.68,-10.62 19.75,-14.4 1.1,-1.03 1.65,-1.8 2.78,-2.79l8.7 -8.73c19.86,-21.44 33.17,-48.11 37.35,-77.64 0.52,-3.65 0.55,-6.9 1.11,-10.74 1.26,-8.64 0.38,-77.45 0.4,-92.29z"/>
   <path class="fil1" d="M824.08 476.1c0,1.49 -8.7,15.23 -10.16,17.72 -6.36,10.81 -73.43,122.39 -74.17,125.15l56.45 0c0.59,-2.19 3.69,-6.73 5.01,-8.93l37.2 -62.46c1.88,-3.12 42.12,-69.97 42.12,-71.48 0,-1.74 -59.26,-100.24 -63.2,-106.85l-21.13 -36.02 -56.45 0c0.74,2.76 59.85,101.05 63.29,106.76 3.69,6.11 7.03,11.75 10.72,17.86 1.32,2.19 10.32,17.08 10.32,18.25z"/>
   <path class="fil1" d="M733.48 476.1l-84.33 142.87 56.45 0 84.33 -142.87 -84.33 -142.87 -56.45 0c0.77,2.89 67.82,114.37 74.01,124.62 1.32,2.19 10.32,17.08 10.32,18.25z"/>
   <path class="fil1" d="M586.83 368.08l0.3 191.65 -68.13 -67.78c-4.58,-4.58 -18.66,-19.87 -23.17,-21.88 -1.01,2.37 -0.79,48.31 0,52.72 5.42,3.64 65.53,66.92 79.94,78.96 4.62,3.86 16.74,18.18 21.31,20.5 9.99,5.07 18.33,1.35 23.41,-5.46 7.05,-9.47 4.97,-15.27 4.97,-29.18l0 -234.17c0,-6.57 0.34,-10.2 -2.21,-14.52 -2.16,-3.66 -5.54,-6.23 -8.97,-8.48 -1.41,4.19 -3.67,8.1 -6.41,10.31 -2.81,2.27 -7.87,3.28 -11.29,5.4 -6.17,3.85 -12.25,11.89 -9.75,21.93z"/>
   <path class="fil1" d="M332.75 342.99l0 263.43c0,18.68 31.98,26.21 37.82,1.58 1.49,-6.28 0.51,-210.5 0.51,-214.14l66.04 65.69 0.21 -46.91c0.06,-6.53 -0.33,-4.78 -7.88,-12.33l-60.62 -61.34c-5.08,-5.14 -10.24,-9.22 -17.96,-9.22 -8.41,0 -18.12,5.15 -18.12,13.24z"/>
   <path class="fil0" d="M508.38 684.48l8.36 0c0.69,-2.96 1.42,-7.21 1.9,-9.95 0.6,-3.47 1.58,-7.57 1.58,-10.96 2.2,2.53 8.05,16.1 9.62,18.96 1.27,2.32 -0.94,1.95 7.81,1.95 2.54,0 2.16,-2.38 3.08,-7.37 1.19,-6.5 4.58,-24.04 4.58,-28.17l-8.36 0 -3.49 20.9c-1.74,-1.27 -10.11,-19.43 -10.45,-20.9l-8.36 0c-1.06,2.19 -6.27,31.51 -6.27,35.54z"/>
   <path class="fil1" d="M508.38 733.96l8.36 0 3.48 -20.91c4.04,4.64 8.63,20.91 11.85,20.91 9.03,0 7.12,2.47 10.36,-16.82 0.95,-5.6 2.88,-13.1 2.88,-18.72l-8.36 0 -3.49 20.9c-3.89,-2.85 -8.29,-20.9 -12.54,-20.9 -9.14,0 -5.79,-2.47 -9.58,16.9 -1.04,5.33 -2.96,13.18 -2.96,18.64z"/>
   <path class="fil1" d="M546.71 719.32c0,16.69 19.21,18.73 29.45,8.56 4.18,-4.15 5.39,-6.09 5.39,-14.13l-18.12 0c-0.51,2.2 -0.88,4.77 -1.39,6.97l10.45 0c-1.25,2.36 -0.64,2.24 -3.21,3.75 -16.29,9.57 -19.07,-17.69 -2.36,-17.69 3.91,0 4.45,2.39 5.97,3.09 2.35,1.08 6.58,0.39 9.36,0.39 -0.93,-3.97 -1.41,-6.55 -4.43,-8.81 -7.03,-5.28 -18.61,-3.32 -25.01,3.07 -2.87,2.85 -6.1,9.21 -6.1,14.8z"/>
   <path class="fil0" d="M815.72 676.12c-3.69,0 -9.06,0.76 -9.06,-7.67 0,-13.43 18.12,-15.24 18.12,-3.49 0,4.89 -4.29,11.16 -9.06,11.16zm-18.12 -6.28c0,22 35.54,18.32 35.54,-4.88 0,-4.81 0.26,-8.1 -4.32,-12.4 -8.73,-8.22 -31.22,-2.91 -31.22,17.28z"/>
   <path class="fil1" d="M658.21 706.78c6.95,0 8.37,1.42 8.37,8.36 0,10.49 -11.55,13.23 -15.88,8.91 -4.69,-4.68 -0.48,-17.27 7.51,-17.27zm-18.12 11.15c0,21.94 23.89,17.74 30.4,9.49 8.31,-10.55 8.18,-29 -11.58,-29 -4.56,0 -10.69,3.32 -13.09,5.72 -2.82,2.82 -5.73,8.28 -5.73,13.79z"/>
   <path class="fil1" d="M677.03 733.96c9.95,0 8.77,0.98 9.87,-6.16 0.36,-2.38 1.22,-5.87 1.28,-8.48l9.06 14.64 10.45 0 -10.45 -18.12c3.87,-5.78 14.87,-13.07 16.03,-17.42 -11,0 -8.2,-1.16 -14.12,4.7 -3.33,3.3 -5.84,7.43 -9.58,9.93 0.11,-4.87 2.09,-8.93 2.09,-14.63l-8.36 0 -6.27 35.54z"/>
   <path class="fil0" d="M584.34 666.36c-3.51,5.24 -11.6,13.69 -13.94,18.12l9.76 0c1.42,-2.12 2.25,-3.08 3.89,-5.17 1.64,-2.11 2.49,-3.96 4.47,-5.29l4.87 10.46 9.77 0c-1.18,-5.06 -7.67,-13.29 -7.67,-18.12 0,-1.13 12.24,-13.69 13.24,-17.42 -9.77,0 -8.31,-1.37 -14.04,6.16 -1.17,1.53 -2.17,2.36 -2.68,4.29 -2.38,-1.74 -4.45,-7.72 -6.28,-10.45l-9.06 0c0.4,4.81 6.46,12.23 7.67,17.42z"/>
   <path class="fil0" d="M707.69 684.48l11.15 0c0.51,-1.9 3.26,-6.5 4.42,-8.83 1.65,-3.34 3.12,-5.5 4.65,-8.59 2.13,-4.29 8.16,-14.3 9.05,-18.12l-9.06 0c-0.92,3.98 -4.57,9.1 -6.5,13l-5.58 11.15c-0.84,1.4 -0.35,0.71 -1.16,1.63l-2.76 -20.23c-0.97,-6.34 -0.18,-5.55 -8.39,-5.55 -3.25,0 -1.15,4.32 -0.7,6.96l3.4 18.91c0.56,3.38 1.48,6.23 1.48,9.67z"/>
   <path class="fil0" d="M734.18 684.48l21.6 0c0.71,-8.48 5.7,-7.67 -11.15,-7.67l0.83 -6.95 11.72 -0.02 0.82 -6.95 -11.28 -0.02c0.95,-4.06 -0.46,-5.91 3.42,-6.34 2.41,-0.26 7.77,0.07 10.52,0.07 2.31,-9.92 3.66,-7.66 -20.21,-7.66 -0.43,5.19 -5.79,29.77 -6.27,35.54z"/>
   <path class="fil0" d="M671.45 684.48l21.61 0c0.71,-8.53 5.45,-7.67 -11.15,-7.67 0,-3.71 0.63,-3.9 0.7,-6.97l11.84 0 0.83 -6.95 -11.28 -0.02c0.95,-4.06 -0.46,-5.91 3.41,-6.34 2.42,-0.26 7.77,0.07 10.53,0.07 0.75,-9.06 7.15,-7.66 -20.21,-7.66l-6.28 35.54z"/>
   <path class="fil0" d="M545.31 684.48l21.61 0c0.06,-3.03 0.69,-3.8 0.69,-7.67l-12.54 0c0.65,-1.36 1.35,-4.92 1.39,-6.97 11.23,0 12.35,2.07 12.55,-6.97l-11.15 0c0.22,-2.68 0.69,-2.74 0.69,-6.27 12.74,0 13.2,1.37 14.14,-4.86 0.51,-3.42 0.1,-2.88 -4.31,-2.86 -5.6,0.03 -11.19,0.06 -16.8,0.06l-6.27 35.54z"/>
   <path class="fil1" d="M582.94 733.96l21.61 0c0.05,-2.05 0.74,-5.6 1.39,-6.97l-13.24 0c0.62,-1.28 1.35,-5.74 1.4,-7.67l11.84 0c0,-7.58 4.16,-6.96 -10.45,-6.96 0.22,-2.69 0.7,-2.75 0.7,-6.28l13.24 0c0.56,-6.74 4.09,-7.81 -4.85,-7.69 -5.11,0.07 -10.25,0.03 -15.36,0.03l-6.28 35.54z"/>
   <path class="fil0" d="M835.23 684.48l8.36 0c0.37,-4.45 2.09,-9.23 2.09,-13.94 10.52,0 11.85,1.54 11.85,-6.97l-10.45 0c0.55,-1.15 1.26,-5.34 1.39,-6.97 2.24,0 11.06,0.33 12.55,0.01 2.63,-0.57 2,-0.71 2.44,-4 0.72,-5.42 -0.99,-3.67 -20.56,-3.67 -3.09,0 -4.04,11.6 -4.89,16.72 -0.96,5.84 -2.78,12.52 -2.78,18.82z"/>
   <path class="fil0" d="M612.22 656.6l6.97 0c0,6.45 -4.19,19.75 -4.19,27.88l8.37 0c0.55,-6.67 4.31,-21.09 4.88,-27.88 7.67,0 9.67,1.64 10.19,-4.6 0.16,-1.96 0.48,-3.06 -1.83,-3.06l-23 0c-2.93,0 -4.87,7.66 -1.39,7.66z"/>
   <path class="fil1" d="M621.28 726.29c-2.48,0 -2.74,-1.65 -2.79,-4.18 -6.39,0 -9.06,-0.88 -9.06,2.09 0,13.14 17.47,11.59 21.61,4.89 1.88,-3.06 2.63,-6.05 3.29,-9.95l2.98 -16.66c0.97,-4.54 1.5,-4.06 -6.28,-4.06 -2.99,0 -3.54,8.67 -4.48,14.33 -0.88,5.38 -1.28,13.54 -5.27,13.54z"/>
   <path class="fil0" d="M761.36 684.48l19.51 0c0.14,-1.63 0.84,-5.82 1.39,-6.97l-11.15 0 3.9 -22.61c1.3,-6.62 1.88,-5.96 -5.99,-5.96 -3.18,0 -3.78,11.59 -4.82,16.78 -0.61,3.1 -0.99,5.66 -1.54,8.91 -0.6,3.56 -1.3,5.35 -1.3,9.85z"/>
   <path class="fil0" d="M647.76 684.48l20.21 0 0.82 -6.95 -10.58 -0.02c0,-4.73 1.51,-10.4 2.39,-15.04 2.96,-15.66 3.82,-13.53 -4.48,-13.53 -3.05,0 -2.89,4.66 -3.29,7.16l-5.07 28.38z"/>
   <path class="fil1" d="M711.88 733.96l8.36 0 4.87 -27.88c1.36,-8.08 3.27,-7.66 -5.57,-7.66 -3.09,0 -4.04,11.6 -4.88,16.72 -0.97,5.84 -2.78,12.52 -2.78,18.82z"/>
  </g>
 </g>
</svg>
